cover


Format;Avi

File Size:800mb

Release notes:Video:Oped

Audio:Own/Prism

Main part for reading NFO we just picked up some new audio on this but our source was missing few spots here and there so we used partial audio of PrIsM thanks
the prism audio had some crackle and noise so cleaned that up,On to video video had a lot of issues ran a sharpen filter adjusted colors brightened chopped of end credits all in all watchable copy

Enjoy


Video: ID : 0
Format : MPEG-4 Visual
Format profile : Advanced Simple@L5
Format settings, BVOP : Yes
Format settings, QPel : No
Format settings, GMC : No warppoints
Format settings, Matrix : Default (H.263)
Codec ID : XVID
Codec ID/Hint : XviD
Duration : 1h 38mn
Bit rate : 979 Kbps
Width : 720 pixels
Height : 304 pixels
Display aspect ratio : 2.35:1
Frame rate : 25.000 fps
Color space : YUV
Chroma subsampling : 4:2:0
Bit depth : 8 bits
Scan type : Progressive
Bits/(Pixel*Frame) : 0.179
Stream size : 690 MiB (88%)
Writing library : XviD 1.2.1 (UTC 2008-12-04)

Audio: ID : 1
Format : MPEG Audio
Format version : Version 1
Format profile : Layer 3
Codec ID : 55
Codec ID/Hint : MP3
Duration : 1h 38mn
Bit rate mode : Constant
Bit rate : 128 Kbps
Channel(s) : 2 channels
Sampling rate : 44.1 KHz
Stream size : 90.2 MiB (11%)
Alignment : Split accross interleaves
Interleave, duration : 40 ms (1.00 video frame)
Interleave, preload duration : 500 ms

Duration:1:38

Release Date:2010

Language:English

Plot: Master sorcerer Balthazar Blake recruits a seemingly everyday guy in his mission to defend New York City from his arch-nemesis, Maxim Horvath.

Cast: Nicolas Cage ...
Balthazar Blake
Jay Baruchel Jay Baruchel ...
Dave
Alfred Molina Alfred Molina ...
Maxim Horvath
Teresa Palmer Teresa Palmer ...
Becky Barnes
Toby Kebbell Toby Kebbell ...
Drake Stone
Omar Benson Miller Omar Benson Miller ...
Bennet
Monica Bellucci Monica Bellucci ...
Veronica
 
http://www.imdb.com/title/tt0963966/